<?xml version="1.0" encoding="utf-8"?>
<!-- Generator: Adobe Illustrator 23.0.3, SVG Export Plug-In . SVG Version: 6.00 Build 0)  -->
<svg version="1.1" id="Layer_1" xmlns="http://www.w3.org/2000/svg" xmlns:xlink="http://www.w3.org/1999/xlink" x="0px" y="0px"
	 viewBox="0 0 64 64" style="enable-background:new 0 0 64 64;" xml:space="preserve">
<style type="text/css">
	.st0{fill:#E8E8E8;}
</style>
<g>
	<g>
		<path class="st0" d="M47.2,44.6c-0.8-0.3-1.7,0.1-2.1,0.9c-0.3,0.8,0.2,1.7,1,2c4,1.4,6.5,3.2,6.5,4.8c0,3-8.1,6.6-19.6,6.8h-2
			c-11.6-0.1-19.6-3.8-19.6-6.8c0-1.7,2.5-3.5,6.7-4.8c0.8-0.3,1.3-1.2,0.9-2c-0.3-0.8-1.3-1.2-2.1-0.9c-5.5,1.8-8.7,4.5-8.7,7.7
			c0,6.2,11.4,9.6,22.6,9.8H33c11.2-0.2,22.6-3.6,22.6-9.8C55.8,49.1,52.6,46.4,47.2,44.6z M32,54.1c0.6,0,1-0.2,1.5-0.6
			c1.9-2.1,19.4-19.6,19.4-30.6C52.8,11.4,43.5,2,32,2s-20.8,9.4-20.8,20.8c0,11,17.3,28.5,19.4,30.6C31,53.9,31.4,54.1,32,54.1z
			 M23.7,22.8c0-4.6,3.8-8.3,8.3-8.3c4.6,0,8.3,3.8,8.3,8.3c0,4.6-3.8,8.3-8.3,8.3C27.4,31.2,23.7,27.4,23.7,22.8z"/>
	</g>
</g>
</svg>
