<?xml version="1.0" encoding="utf-8"?>
<!-- Generator: Adobe Illustrator 23.0.3, SVG Export Plug-In . SVG Version: 6.00 Build 0)  -->
<svg version="1.1" id="Layer_1" xmlns="http://www.w3.org/2000/svg" xmlns:xlink="http://www.w3.org/1999/xlink" x="0px" y="0px"
	 viewBox="0 0 64 64" style="enable-background:new 0 0 64 64;" xml:space="preserve">
<style type="text/css">
	.st0{fill:#E8E8E8;}
</style>
<path class="st0" d="M29.4,3.3c-1.7-1.7-4.4-1.7-6.1,0L10,16.5L47.5,54l13.3-13.3c1.7-1.7,1.7-4.4,0-6.1L29.4,3.3z M27.1,20.4
	c-1.1,1.1-2.9,1.1-4.1,0l-2.7-2.7c-1.1-1.1-1.1-2.9,0-4.1l2.7-2.7c1.1-1.1,2.9-1.1,4.1,0l2.7,2.7c1.1,1.1,1.1,2.9,0,4.1L27.1,20.4z
	 M42.7,58.8L5.2,21.3l-1.9,1.9c-1.7,1.7-1.7,4.4,0,6.1l31.4,31.3c1.7,1.7,4.4,1.7,6.1,0L42.7,58.8z"/>
</svg>
