<?xml version="1.0" encoding="utf-8"?>
<!-- Generator: Adobe Illustrator 23.0.3, SVG Export Plug-In . SVG Version: 6.00 Build 0)  -->
<svg version="1.1" id="Layer_1" xmlns="http://www.w3.org/2000/svg" xmlns:xlink="http://www.w3.org/1999/xlink" x="0px" y="0px"
	 viewBox="0 0 64 64" style="enable-background:new 0 0 64 64;" xml:space="preserve">
<style type="text/css">
	.st0{fill-rule:evenodd;clip-rule:evenodd;fill:#E8E8E8;}
</style>
<path class="st0" d="M32,2c16.5,0,30,13.5,30,30S48.5,62,32,62S2,48.5,2,32S15.5,2,32,2z M32,56.4c13.4,0,24.4-10.9,24.4-24.4
	S45.4,7.6,32,7.6S7.6,18.6,7.6,32S18.6,56.4,32,56.4z M32,17c2.1,0,3.8,1.7,3.8,3.8V32c0,2.1-1.7,3.8-3.8,3.8s-3.8-1.7-3.8-3.8V20.8
	C28.2,18.7,29.9,17,32,17z M32,39.5c2.1,0,3.8,1.7,3.8,3.7c0,2.1-1.7,3.8-3.8,3.8s-3.8-1.7-3.8-3.8C28.2,41.2,29.9,39.5,32,39.5z"/>
</svg>
