<?xml version="1.0" encoding="utf-8"?>
<!-- Generator: Adobe Illustrator 23.0.3, SVG Export Plug-In . SVG Version: 6.00 Build 0)  -->
<svg version="1.1" id="Layer_1" xmlns="http://www.w3.org/2000/svg" xmlns:xlink="http://www.w3.org/1999/xlink" x="0px" y="0px"
	 viewBox="0 0 64 64" style="enable-background:new 0 0 64 64;" xml:space="preserve">
<style type="text/css">
	.st0{fill:#E8E8E8;}
</style>
<path class="st0" d="M60.3,35.8H52v6.5l-3.3-0.1l-3.3,0.1v-6.5H37c-0.9,0-1.7,0.8-1.7,1.9v22.5c0,1,0.8,1.9,1.7,1.9h23.3
	c0.9,0,1.7-0.8,1.7-1.9V37.6C62,36.6,61.2,35.8,60.3,35.8z M20.3,28.2h23.3c0.9,0,1.7-0.8,1.7-1.9V3.9c0-1-0.8-1.9-1.7-1.9h-8.3v6.4
	H32l-3.3,0.1V2h-8.3c-0.9,0-1.7,0.8-1.7,1.9v22.5C18.7,27.4,19.4,28.2,20.3,28.2z M27,35.8h-8.3v6.5l-3.3-0.1H12v-6.5H3.7
	c-0.9,0-1.7,0.8-1.7,1.9v22.5c0,1,0.8,1.9,1.7,1.9H27c0.9,0,1.7-0.8,1.7-1.9V37.6C28.7,36.6,27.9,35.8,27,35.8z"/>
</svg>
