<?xml version="1.0" encoding="utf-8"?>
<!-- Generator: Adobe Illustrator 23.0.3, SVG Export Plug-In . SVG Version: 6.00 Build 0)  -->
<svg version="1.1" id="Layer_1" xmlns="http://www.w3.org/2000/svg" xmlns:xlink="http://www.w3.org/1999/xlink" x="0px" y="0px"
	 viewBox="0 0 64 64" style="enable-background:new 0 0 64 64;" xml:space="preserve">
<style type="text/css">
	.st0{fill-rule:evenodd;clip-rule:evenodd;fill:#E8E8E8;}
</style>
<path class="st0" d="M8,26.4v-2.8C8,10.3,18.7,2,32,2l0,0c13.3,0,24,8.3,24,21.6v2.8c2.8,1,4.8,3.7,4.8,6.8v9.6c0,3.1-2,5.8-4.8,6.8
	v3.6c0,4.9-4,8.8-8.8,8.8C40.8,62,32,62,32,62c-1.3,0-2.4-1.1-2.4-2.4c0-1.3,1.1-2.4,2.4-2.4c0,0,8.8,0,15.2,0c2.2,0,4-1.8,4-4V50
	h-2.4c-1.3,0-2.4-1.1-2.4-2.4V28.4c0-1.3,1.1-2.4,2.4-2.4h2.4v-2.4C51.2,13,42.6,6.8,32,6.8l0,0c-10.6,0-19.2,6.1-19.2,16.8V26h2.4
	c1.3,0,2.4,1.1,2.4,2.4v19.2c0,1.3-1.1,2.4-2.4,2.4c0,0-2.4,0-4.8,0c-4,0-7.2-3.2-7.2-7.2c0-2.9,0-6.7,0-9.6
	C3.2,30.1,5.2,27.4,8,26.4z"/>
</svg>
